<svg width="41" height="61" viewBox="0 0 41 61" fill="none" xmlns="http://www.w3.org/2000/svg">
<path d="M20.2033 17.5591C18.8232 17.5591 17.7031 18.6817 17.7031 20.0593C17.7031 21.4369 18.8232 22.5595 20.2033 22.5595C21.5834 22.5595 22.7035 21.4368 22.7035 20.0593C22.7035 18.6816 21.5834 17.5591 20.2033 17.5591Z" fill="#FFC107"/>
<path d="M32.9201 4.62047C28.2872 0.802621 22.1991 -0.715096 16.2186 0.442588C8.14782 2.01023 1.8197 8.53325 0.479657 16.6741C-0.315416 21.4796 0.564625 26.1925 3.02239 30.3004L4.04248 32.003C7.30774 37.4461 10.6806 43.0765 13.3833 48.867L17.9362 58.6204C18.3463 59.5004 19.2288 60.063 20.2014 60.063C21.1741 60.063 22.0566 59.5004 22.4666 58.6204L26.5645 49.8395C29.2972 43.9815 32.67 38.2735 35.9353 32.753L37.4555 30.1727C39.2532 27.1149 40.2032 23.6171 40.2032 20.0593C40.2033 14.0663 37.5481 8.43832 32.9201 4.62047ZM20.2014 27.56C16.0661 27.56 12.7007 24.1947 12.7007 20.0593C12.7007 15.924 16.0661 12.5587 20.2014 12.5587C24.3368 12.5587 27.7021 15.924 27.7021 20.0593C27.7021 24.1947 24.3368 27.56 20.2014 27.56Z" fill="#FFC107"/>
</svg>
