<svg width="116" height="116" viewBox="0 0 116 116" fill="none" xmlns="http://www.w3.org/2000/svg">
<path d="M58.0003 9.66602C31.3687 9.66602 9.66699 31.3677 9.66699 57.9994C9.66699 84.631 31.3687 106.333 58.0003 106.333C84.632 106.333 106.334 84.631 106.334 57.9994C106.334 31.3677 84.632 9.66602 58.0003 9.66602ZM74.2403 69.116C75.642 70.5177 75.642 72.8377 74.2403 74.2393C73.5153 74.9643 72.597 75.3027 71.6787 75.3027C70.7603 75.3027 69.842 74.9643 69.117 74.2393L58.0003 63.1227L46.8837 74.2393C46.1587 74.9643 45.2403 75.3027 44.322 75.3027C43.4037 75.3027 42.4853 74.9643 41.7603 74.2393C40.3587 72.8377 40.3587 70.5177 41.7603 69.116L52.877 57.9994L41.7603 46.8827C40.3587 45.481 40.3587 43.161 41.7603 41.7594C43.162 40.3577 45.482 40.3577 46.8837 41.7594L58.0003 52.876L69.117 41.7594C70.5187 40.3577 72.8387 40.3577 74.2403 41.7594C75.642 43.161 75.642 45.481 74.2403 46.8827L63.1237 57.9994L74.2403 69.116Z" fill="#085526"/>
</svg>
