<svg width="104" height="104" viewBox="0 0 104 104" fill="none" xmlns="http://www.w3.org/2000/svg">
<path d="M88.833 44.157H76.3097C66.0397 44.157 57.6763 35.7937 57.6763 25.5237V13.0003C57.6763 10.617 55.7263 8.66699 53.343 8.66699H34.9697C21.623 8.66699 10.833 17.3337 10.833 32.8037V71.197C10.833 86.667 21.623 95.3337 34.9697 95.3337H69.0297C82.3763 95.3337 93.1663 86.667 93.1663 71.197V48.4903C93.1663 46.107 91.2163 44.157 88.833 44.157ZM53.213 68.3803L44.5463 77.047C44.243 77.3503 43.853 77.6103 43.463 77.7403C43.073 77.9137 42.683 78.0003 42.2497 78.0003C41.8163 78.0003 41.4263 77.9137 41.0363 77.7403C40.6897 77.6103 40.343 77.3503 40.083 77.0903C40.0397 77.047 39.9963 77.047 39.9963 77.0037L31.3297 68.337C30.073 67.0803 30.073 65.0003 31.3297 63.7437C32.5863 62.487 34.6663 62.487 35.923 63.7437L38.9997 66.907V48.7503C38.9997 46.9737 40.473 45.5003 42.2497 45.5003C44.0263 45.5003 45.4997 46.9737 45.4997 48.7503V66.907L48.6197 63.787C49.8763 62.5303 51.9563 62.5303 53.213 63.787C54.4697 65.0437 54.4697 67.1237 53.213 68.3803Z" fill="black"/>
<path d="M75.5299 38.1768C79.6466 38.2201 85.3666 38.2201 90.2633 38.2201C92.7333 38.2201 94.0333 35.3168 92.2999 33.5835C86.0599 27.3001 74.8799 15.9901 68.4666 9.5768C66.6899 7.80013 63.6133 9.01347 63.6133 11.4835V26.6068C63.6133 32.9335 68.9866 38.1768 75.5299 38.1768Z" fill="black"/>
</svg>
