<svg width="20" height="21" viewBox="0 0 20 21" fill="none" xmlns="http://www.w3.org/2000/svg">
<g clip-path="url(#clip0_684_4153)">
<path d="M0 2.82323C0 2.14982 0.225232 1.59426 0.675676 1.15656C1.12612 0.718848 1.71172 0.5 2.43243 0.5C3.14029 0.5 3.71299 0.715474 4.15058 1.14646C4.60102 1.59091 4.82625 2.17002 4.82625 2.88383C4.82625 3.5303 4.60747 4.069 4.16988 4.49999C3.71944 4.94444 3.12741 5.16666 2.39382 5.16666H2.37452C1.66666 5.16666 1.09396 4.94444 0.656371 4.49999C0.218784 4.05555 0 3.49662 0 2.82323ZM0.250965 20.5V7.00504H4.53668V20.5H0.250965ZM6.9112 20.5H11.1969V12.9646C11.1969 12.4932 11.2484 12.1296 11.3514 11.8737C11.5315 11.4158 11.805 11.0286 12.1718 10.7121C12.5386 10.3956 12.9987 10.2374 13.5521 10.2374C14.9936 10.2374 15.7143 11.2542 15.7143 13.2879V20.5H20V12.7626C20 10.7693 19.5496 9.25756 18.6486 8.22726C17.7477 7.19696 16.5573 6.68181 15.0772 6.68181C13.417 6.68181 12.1236 7.42928 11.1969 8.92423V8.96463H11.1776L11.1969 8.92423V7.00504H6.9112C6.93693 7.43601 6.94981 8.77607 6.94981 11.0252C6.94981 13.2744 6.93693 16.4326 6.9112 20.5Z" fill="#FFC107"/>
</g>
<defs>
<clipPath id="clip0_684_4153">
<rect width="20" height="20" fill="white" transform="translate(0 0.5)"/>
</clipPath>
</defs>
</svg>
