<svg width="50" height="48" viewBox="0 0 50 48" fill="none" xmlns="http://www.w3.org/2000/svg">
<path d="M10 25.0003V20.0003H40V25.0003M2.5708 20.0005L20.5615 32.042C22.1652 33.111 22.9672 33.6458 23.834 33.8535C24.5997 34.037 25.3983 34.037 26.1643 33.8535C27.031 33.6458 27.833 33.111 29.4368 32.042L47.4272 20.0003M20.7453 5.17231L6.24535 14.2785C4.87802 15.1372 4.19437 15.5665 3.6985 16.1469C3.25962 16.6606 2.9294 17.2579 2.72777 17.9028C2.5 18.6314 2.5 19.4387 2.5 21.0533V37.0003C2.5 39.8005 2.5 41.2008 3.04497 42.2703C3.52432 43.211 4.28923 43.976 5.23005 44.4553C6.2996 45.0003 7.69972 45.0003 10.5 45.0003H39.5C42.3002 45.0003 43.7005 45.0003 44.77 44.4553C45.7108 43.976 46.4757 43.211 46.955 42.2703C47.5 41.2008 47.5 39.8005 47.5 37.0003V21.0533C47.5 19.4387 47.5 18.6314 47.2722 17.9028C47.0705 17.2579 46.7405 16.6606 46.3015 16.1469C45.8057 15.5665 45.122 15.1372 43.7547 14.2785L29.2547 5.17228C27.7115 4.20323 26.94 3.71868 26.1122 3.52981C25.38 3.36281 24.62 3.36281 23.8878 3.52981C23.06 3.71868 22.2885 4.20323 20.7453 5.17231Z" stroke="#085526" stroke-width="5" stroke-linecap="round" stroke-linejoin="round"/>
</svg>
