<svg width="44" height="44" viewBox="0 0 44 44" fill="none" xmlns="http://www.w3.org/2000/svg">
  <path d="M38.5 13.7083H5.5C5.02448 13.7083 4.625 13.3088 4.625 12.8333C4.625 12.3577 5.02448 11.9583 5.5 11.9583H38.5C38.9755 11.9583 39.375 12.3577 39.375 12.8333C39.375 13.3088 38.9755 13.7083 38.5 13.7083Z" fill="#FFFFFF"/>
  <path d="M38.5 13.7083H5.5C5.02448 13.7083 4.625 13.3088 4.625 12.8333C4.625 12.3577 5.02448 11.9583 5.5 11.9583H38.5C38.9755 11.9583 39.375 12.3577 39.375 12.8333C39.375 13.3088 38.9755 13.7083 38.5 13.7083Z" fill="#FFFFFF" fill-opacity="0.07"/>
  <path d="M38.5 13.7083H5.5C5.02448 13.7083 4.625 13.3088 4.625 12.8333C4.625 12.3577 5.02448 11.9583 5.5 11.9583H38.5C38.9755 11.9583 39.375 12.3577 39.375 12.8333C39.375 13.3088 38.9755 13.7083 38.5 13.7083Z" stroke="#FFFFFF"/>
  <path d="M38.5 13.7083H5.5C5.02448 13.7083 4.625 13.3088 4.625 12.8333C4.625 12.3577 5.02448 11.9583 5.5 11.9583H38.5C38.9755 11.9583 39.375 12.3577 39.375 12.8333C39.375 13.3088 38.9755 13.7083 38.5 13.7083Z" stroke="#FFFFFF" stroke-opacity="0.07"/>
  <path d="M38.5 22.875H5.5C5.02448 22.875 4.625 22.4755 4.625 22C4.625 21.5245 5.02448 21.125 5.5 21.125H38.5C38.9755 21.125 39.375 21.5245 39.375 22C39.375 22.4755 38.9755 22.875 38.5 22.875Z" fill="#FFFFFF"/>
  <path d="M38.5 22.875H5.5C5.02448 22.875 4.625 22.4755 4.625 22C4.625 21.5245 5.02448 21.125 5.5 21.125H38.5C38.9755 21.125 39.375 21.5245 39.375 22C39.375 22.4755 38.9755 22.875 38.5 22.875Z" fill="#FFFFFF" fill-opacity="0.07"/>
  <path d="M38.5 22.875H5.5C5.02448 22.875 4.625 22.4755 4.625 22C4.625 21.5245 5.02448 21.125 5.5 21.125H38.5C38.9755 21.125 39.375 21.5245 39.375 22C39.375 22.4755 38.9755 22.875 38.5 22.875Z" stroke="#FFFFFF"/>
  <path d="M38.5 22.875H5.5C5.02448 22.875 4.625 22.4755 4.625 22C4.625 21.5245 5.02448 21.125 5.5 21.125H38.5C38.9755 21.125 39.375 21.5245 39.375 22C39.375 22.4755 38.9755 22.875 38.5 22.875Z" stroke="#FFFFFF" stroke-opacity="0.07"/>
  <path d="M38.5 32.5417H5.5C4.74833 32.5417 4.125 31.9184 4.125 31.1667C4.125 30.4151 4.74833 29.7917 5.5 29.7917H38.5C39.2517 29.7917 39.875 30.4151 39.875 31.1667C39.875 31.9184 39.2517 32.5417 38.5 32.5417Z" fill="#FFFFFF"/>
</svg>
