<svg width="20" height="21" viewBox="0 0 20 21" fill="none" xmlns="http://www.w3.org/2000/svg">
<g clip-path="url(#clip0_530_2496)">
<path d="M0 10.5C0 8.68666 0.44668 7.01334 1.34 5.48C2.23334 3.94666 3.44668 2.73334 4.98 1.84C6.51334 0.94666 8.18668 0.5 10 0.5C11.8133 0.5 13.4867 0.94666 15.02 1.84C16.5533 2.73334 17.7667 3.94666 18.66 5.48C19.5533 7.01334 20 8.68666 20 10.5C20 12.3133 19.5533 13.9867 18.66 15.52C17.7667 17.0533 16.5533 18.2667 15.02 19.16C13.4867 20.0533 11.8133 20.5 10 20.5C8.18668 20.5 6.51334 20.0533 4.98 19.16C3.44668 18.2667 2.23334 17.0533 1.34 15.52C0.44668 13.9867 0 12.3133 0 10.5ZM1.66 10.5C1.66 12.58 2.36 14.4133 3.76 16C4.4 14.7467 5.41334 13.5533 6.8 12.42C8.18668 11.2867 9.54 10.5733 10.86 10.28C10.66 9.81334 10.4667 9.39334 10.28 9.02C7.98668 9.75334 5.50668 10.12 2.84 10.12C2.32 10.12 1.93334 10.1133 1.68 10.1C1.68 10.1533 1.67668 10.22 1.67 10.3C1.66334 10.38 1.66 10.4467 1.66 10.5ZM1.92 8.44C2.21334 8.46666 2.64668 8.48 3.22 8.48C5.44668 8.48 7.56 8.18 9.56 7.58C8.54668 5.78 7.43334 4.28 6.22 3.08C5.16668 3.61334 4.26334 4.35334 3.51 5.3C2.75668 6.24666 2.22668 7.29334 1.92 8.44ZM4.9 17.08C6.40668 18.2533 8.10668 18.84 10 18.84C10.9867 18.84 11.9667 18.6533 12.94 18.28C12.6733 16 12.1533 13.7933 11.38 11.66C10.1533 11.9267 8.91668 12.6 7.67 13.68C6.42334 14.76 5.5 15.8933 4.9 17.08ZM7.96 2.44C9.13334 3.65334 10.22 5.16666 11.22 6.98C13.0333 6.22 14.4 5.25334 15.32 4.08C13.7733 2.8 12 2.16 10 2.16C9.32 2.16 8.64 2.25334 7.96 2.44ZM11.94 8.4C12.14 8.82666 12.3667 9.36666 12.62 10.02C13.6067 9.92666 14.68 9.88 15.84 9.88C16.6667 9.88 17.4867 9.9 18.3 9.94C18.1933 8.12666 17.54 6.51334 16.34 5.1C15.4733 6.39334 14.0067 7.49334 11.94 8.4ZM13.12 11.42C13.8 13.3933 14.26 15.42 14.5 17.5C15.5533 16.82 16.4133 15.9467 17.08 14.88C17.7467 13.8133 18.1467 12.66 18.28 11.42C17.3067 11.3533 16.42 11.32 15.62 11.32C14.8867 11.32 14.0533 11.3533 13.12 11.42Z" fill="#3461FD"/>
</g>
<defs>
<clipPath id="clip0_530_2496">
<rect width="20" height="20" fill="white" transform="translate(0 0.5)"/>
</clipPath>
</defs>
</svg>
